
<svg width="787" height="249" viewBox="0 0 787 249" fill="none" xmlns="http://www.w3.org/2000/svg">
<g opacity="0.05">
<path fill-rule="evenodd" clip-rule="evenodd" d="M464.089 14.4643L600.277 234.536C605.182 242.496 615.665 249 623.552 249H779.071C786.958 249 789.362 242.496 784.457 234.536L648.269 14.4643C643.364 6.50409 632.881 0 624.994 0H469.475C461.589 0 459.184 6.50409 464.089 14.4643Z" fill="#009659"/>
<path fill-rule="evenodd" clip-rule="evenodd" d="M553.785 234.536L417.597 14.4643C412.692 6.50409 402.209 0 394.323 0H238.803C230.917 0 228.512 6.50409 233.417 14.4643L369.605 234.536C374.51 242.496 384.993 249 392.88 249H548.399C556.286 249 558.69 242.496 553.785 234.536Z" fill="#007837"/>
<path fill-rule="evenodd" clip-rule="evenodd" d="M322.91 234.536L186.723 14.4643C181.817 6.50409 171.334 0 163.448 0H7.92838C0.0418178 0 -2.36262 6.50409 2.54244 14.4643L138.73 234.536C143.635 242.496 154.118 249 162.005 249H317.524C325.411 249 327.815 242.496 322.91 234.536Z" fill="#006635"/>
</g>
</svg>
