<svg width="1440" height="1546" viewBox="0 0 1440 1546" fill="none" xmlns="http://www.w3.org/2000/svg">
<path opacity="0.5" d="M1482.5 1H1318.5H1049.73C1034.2 1 1024.6 17.9179 1032.55 31.2492L1070.45 94.7508C1078.4 108.082 1068.8 125 1053.27 125H869.5H-25.2786C-28.3835 125 -31.4458 125.723 -34.2229 127.111L-110.944 165.472C-117.72 168.86 -122 175.785 -122 183.361L-122 342.5C-122 353.546 -113.046 362.5 -102 362.5H610.703C618.504 362.5 625.593 367.036 628.863 374.119L745.774 627.427C746.257 628.474 746.649 629.56 746.945 630.675L892.052 1177.13C894.38 1185.9 902.313 1192 911.382 1192H1500.5C1511.55 1192 1520.5 1200.95 1520.5 1212V1525C1520.5 1536.05 1511.55 1545 1500.5 1545H-43" stroke="#A5A8AB"/>
<line x1="943" y1="125" x2="996" y2="125" stroke="url(#paint0_linear_5046_1666)" stroke-width="4"/>
<defs>
<linearGradient id="paint0_linear_5046_1666" x1="943" y1="127.621" x2="947.857" y2="112.22" gradientUnits="userSpaceOnUse">
<stop stop-color="#0B3F23"/>
<stop offset="1" stop-color="#009B48"/>
</linearGradient>
</defs>
</svg>
